<svg xmlns="http://www.w3.org/2000/svg" viewBox="0 0 32 32" fill="none">
  <rect width="32" height="32" rx="4" fill="#1a1a1a"/>
  <path d="M11.7 13.3c.1-2.5 2.1-4.5 5.1-4.5v-1.8c-4.3.2-7 3-7 6.3 0 3.3 2.7 6.1 7 6.3v-1.8c-3-.1-5-2-5.1-4.5z" fill="#76b900"/>
  <path d="M16.8 7v1.8c2.8.2 4.8 2.2 4.8 4.5 0 2.3-2 4.3-4.8 4.5v1.8c4-.2 6.7-2.9 6.7-6.3 0-3.4-2.7-6.1-6.7-6.3z" fill="#76b900"/>
  <path d="M16.8 21.6v1.5h-1.2v-1.5c-3.3-.1-5.6-1.5-5.6-1.5l.9-1.7s2.3 1.3 4.7 1.4v-3.1l-.4-.1c-2.6-.8-4.2-1.9-4.2-4 0-2 1.6-3.5 4.6-3.7V7.5h1.2v1.4c2.2.1 3.8.9 3.8.9l-.8 1.7s-1.6-.7-3-.8v3l.3.1c2.8.8 4.5 1.9 4.5 4.1 0 2-1.6 3.5-4.8 3.7z" fill="#76b900" opacity="0"/>
  <path d="M14 10.5c0 0 .8-.3 2.8-.3v12.6c0 0-6.3-.5-6.3-6.3 0-4.2 3.5-6 3.5-6z" fill="#76b900"/>
  <path d="M16.8 10.2c3 .3 4.8 2 4.8 4.5 0 2.8-2.5 4.5-4.8 4.7V10.2z" fill="#76b900"/>
</svg>
